Coordinates
version=1
nRows=18
nColumns=22
inDegrees=yes

Units are S.I. units (second, meters, Newtons, ...)
If the header above contains a line with 'inDegrees', this indicates whether rotational values are in degrees (yes) or radians (no).

endheader
time	pelvis_tilt	pelvis_list	pelvis_rotation	pelvis_tx	pelvis_ty	pelvis_tz	hip_flexion_r	hip_adduction_r	hip_rotation_r	knee_angle_r	ankle_angle_r	subtalar_angle_r	hip_flexion_l	hip_adduction_l	hip_rotation_l	knee_angle_l	ankle_angle_l	subtalar_angle_l	lumbar_extension	lumbar_bending	lumbar_rotation
      2.28000000	      3.54874116	     -5.10275960	     -5.21780800	     -0.00581525	      0.92739207	      0.00939117	     -1.20878242	      7.43762752	     -4.40561804	    -23.37133522	     18.91218208	     -3.47299749	     29.12664492	    -10.00592625	     -7.46511848	    -48.76452311	      4.33758224	      2.00494804	    -16.09042765	      0.32980878	      1.07434255
      2.29000000	      3.55598784	     -5.20263540	     -5.38213389	     -0.01309290	      0.92800805	      0.00994616	     -0.54875353	      7.58814582	     -4.39801220	    -23.68117411	     18.53339647	     -3.56785162	     28.53815409	    -10.20245034	     -6.76792137	    -50.95639814	      4.83916532	      1.77060827	    -16.02144557	      0.30392689	      0.81654175
      2.30000000	      3.54521085	     -5.29642512	     -5.54902354	     -0.02028113	      0.92854006	      0.01048138	      0.12587036	      7.73782419	     -4.36707470	    -23.99146867	     18.14745465	     -3.65365968	     27.82559220	    -10.41605116	     -6.17713623	    -53.01141804	      5.31040038	      1.48302693	    -15.91446653	      0.27467980	      0.53207371
      2.31000000	      3.52200620	     -5.38844296	     -5.70715641	     -0.02737139	      0.92899303	      0.01097224	      0.79628735	      7.89117590	     -4.32315520	    -24.28123180	     17.75752998	     -3.73633739	     26.98502887	    -10.64885948	     -5.68778032	    -54.91376196	      5.76134628	      1.16942949	    -15.77363433	      0.25389013	      0.20481530
      2.32000000	      3.48337132	     -5.47777430	     -5.85069254	     -0.03437297	      0.92935732	      0.01141491	      1.46657800	      8.04663356	     -4.28109569	    -24.55092192	     17.37246860	     -3.82579079	     26.02431726	    -10.89294901	     -5.28307473	    -56.64878677	      6.19221922	      0.84159007	    -15.59559748	      0.23930318	     -0.16111087
      2.33000000	      3.42303792	     -5.56749065	     -5.96573699	     -0.04128258	      0.92961750	      0.01177334	      2.13939693	      8.20893682	     -4.24363376	    -24.79339283	     16.99947449	     -3.92941872	     24.96222056	    -11.14288884	     -4.94561052	    -58.21374858	      6.60079961	      0.49569961	    -15.37030688	      0.24292067	     -0.57781707
      2.34000000	      3.34080521	     -5.65740754	     -6.04577892	     -0.04811932	      0.92977245	      0.01202703	      2.81520437	      8.37696900	     -4.21065904	    -25.00516766	     16.64275744	     -4.04310745	     23.80985272	    -11.38432262	     -4.64850591	    -59.60095841	      6.98587152	      0.16752215	    -15.10215541	      0.26642210	     -1.05276118
      2.35000000	      3.23166878	     -5.74517837	     -6.08941217	     -0.05488298	      0.92980653	      0.01215783	      3.50824721	      8.54169696	     -4.21124502	    -25.20221316	     16.30969098	     -4.17323019	     22.58503279	    -11.62059415	     -4.40675596	    -60.81136038	      7.33699284	     -0.19037740	    -14.78257940	      0.31094910	     -1.58471479
      2.36000000	      3.10393487	     -5.83294038	     -6.08829765	     -0.06161823	      0.92973585	      0.01214314	      4.21105069	      8.70780328	     -4.21847146	    -25.37986630	     15.99025374	     -4.29055053	     21.29508792	    -11.82967918	     -4.17167548	    -61.84403804	      7.65637042	     -0.46405021	    -14.43257940	      0.37644978	     -2.17293437
      2.37000000	      2.93693543	     -5.93081704	     -6.04600569	     -0.06826715	      0.92953715	      0.01199962	      4.93753358	      8.88111913	     -4.27106590	    -25.52855698	     15.70130035	     -4.42740831	     19.96724308	    -12.05516774	     -3.99767211	    -62.69614171	      7.92736289	     -0.80945479	    -14.01383512	      0.48001150	     -2.84082604
      2.38000000	      2.75439135	     -6.02671723	     -5.96421203	     -0.07491033	      0.92925039	      0.01169832	      5.68156212	      9.04727484	     -4.33600646	    -25.67347709	     15.41563148	     -4.54589328	     18.59009266	    -12.25424960	     -3.84107417	    -63.36464768	      8.16680269	     -1.06510878	    -13.57099669	      0.60157505	     -3.55201587
      2.39000000	      2.55805904	     -6.09788865	     -5.87359501	     -0.08154056	      0.92890770	      0.01129812	      6.44496692	      9.18221836	     -4.38852003	    -25.82088883	     15.11345550	     -4.62554741	     17.14905448	    -12.42115208	     -3.75512896	    -63.82538374	      8.36445783	     -1.15138748	    -13.09919286	      0.70349388	     -4.28523060
      2.40000000	      2.33715669	     -6.19181864	     -5.72463299	     -0.08818629	      0.92846965	      0.01072922	      7.22867572	      9.33266887	     -4.48391433	    -25.94908312	     14.81885097	     -4.72170152	     15.70500460	    -12.59743298	     -3.67432676	    -64.11894741	      8.52197593	     -1.24792652	    -12.59751286	      0.85269968	     -5.09501487
      2.41000000	      2.09938517	     -6.27991395	     -5.54776964	     -0.09486626	      0.92797205	      0.01003434	      8.03456532	      9.46676369	     -4.59383945	    -26.07331452	     14.52183118	     -4.82411092	     14.23950681	    -12.76081753	     -3.63928215	    -64.22348605	      8.63369472	     -1.30257055	    -12.07297854	      1.00575077	     -5.94714287
      2.42000000	      1.84886180	     -6.36286716	     -5.33105847	     -0.10156548	      0.92743638	      0.00919356	      8.84941403	      9.57633070	     -4.75370773	    -26.17657937	     14.22153708	     -4.94594981	     12.75762352	    -12.90869916	     -3.63666003	    -64.13496243	      8.69777438	     -1.28652722	    -11.52673230	      1.16005883	     -6.84753213
      2.43000000	      1.60227047	     -6.42091517	     -5.11376525	     -0.10839318	      0.92688678	      0.00825303	      9.68815074	      9.65357864	     -4.85760342	    -26.31254520	     13.88019647	     -5.04044948	     11.24297283	    -13.00890335	     -3.67822933	    -63.85001172	      8.72167474	     -1.18960491	    -10.99641088	      1.28700376	     -7.75952524
      2.44000000	      1.36431743	     -6.46059264	     -4.84226543	     -0.11520962	      0.92636453	      0.00713086	     10.49671904	      9.67343191	     -5.07962235	    -26.39800580	     13.52799620	     -5.15510164	      9.70081803	    -13.06235547	     -3.71867132	    -63.35346898	      8.66752081	     -0.91433951	    -10.46245650	      1.39670169	     -8.71638606
      2.45000000	      1.16813352	     -6.49028519	     -4.56291774	     -0.12217529	      0.92587517	      0.00590385	     11.28591743	      9.66985391	     -5.26295048	    -26.51606700	     13.22882388	     -5.26376900	      8.10975260	    -13.07382164	     -3.76870097	    -62.67107755	      8.48837679	     -0.31760800	     -9.99666824	      1.49021101	     -9.69735823
